<!DOCTYPE svg PUBLIC "-//W3C//DTD SVG 1.1//EN" "http://www.w3.org/Graphics/SVG/1.1/DTD/svg11.dtd">

<!-- Uploaded to: SVG Repo, www.svgrepo.com, Transformed by: SVG Repo Mixer Tools -->
<svg fill="#f9faf8" height="48px" width="48px" version="1.1" id="Layer_1" xmlns="http://www.w3.org/2000/svg" xmlns:xlink="http://www.w3.org/1999/xlink" viewBox="0 0 512.011 512.011" xml:space="preserve" stroke="#f9faf8">

<g id="SVGRepo_bgCarrier" stroke-width="0"/>

<g id="SVGRepo_tracerCarrier" stroke-linecap="round" stroke-linejoin="round"/>

<g id="SVGRepo_iconCarrier"> <g transform="translate(-1)"> <g> <g> <path d="M413.889,128.986c2.185,0,4.369-0.836,6.033-2.5l6.033-6.033c3.337-3.337,3.337-8.73,0-12.066 c-3.337-3.336-8.73-3.336-12.066,0l-6.033,6.033c-3.337,3.337-3.337,8.73,0,12.066 C409.52,128.15,411.705,128.986,413.889,128.986z"/> <path d="M257.005,46.937c4.719,0,8.533-3.823,8.533-8.533V29.87c0-4.71-3.814-8.533-8.533-8.533s-8.533,3.823-8.533,8.533v8.533 C248.472,43.114,252.287,46.937,257.005,46.937z"/> <path d="M94.089,126.486c1.664,1.664,3.849,2.5,6.033,2.5c2.185,0,4.369-0.836,6.033-2.5c3.337-3.337,3.337-8.73,0-12.066 l-6.033-6.033c-3.337-3.336-8.73-3.336-12.066,0c-3.337,3.337-3.337,8.73,0,12.066L94.089,126.486z"/> <path d="M9.539,285.87h93.869h307.2h93.864c4.719,0,8.533-3.823,8.533-8.533c0-4.71-3.814-8.533-8.533-8.533h-85.555 c-1.995-38.289-17.339-73.099-41.449-99.865l18.32-18.313c3.337-3.328,3.337-8.738,0-12.066c-3.328-3.337-8.73-3.337-12.066,0 l-18.32,18.313c-26.767-24.109-61.577-39.45-99.863-41.445V72.537c0-4.71-3.814-8.533-8.533-8.533s-8.533,3.823-8.533,8.533 v42.891c-38.287,1.995-73.096,17.337-99.862,41.446l-18.321-18.314c-3.336-3.337-8.738-3.337-12.066,0 c-3.337,3.328-3.337,8.738,0,12.066l18.321,18.314c-24.109,26.766-39.45,61.576-41.445,99.864H9.539 c-4.719,0-8.533,3.823-8.533,8.533C1.005,282.047,4.82,285.87,9.539,285.87z M257.008,132.27 c77.124,0,140.382,60.501,144.811,136.533h-289.63C116.626,192.771,179.884,132.27,257.008,132.27z"/> <path d="M508.287,320.899l-18.807-9.404c-11.904-5.956-25.847-6.536-38.212-1.587l-10.854,4.343 c-7.876,3.14-16.708,2.765-24.235-1.007l-1.741-0.87c-4.233-2.125-9.344-0.41-11.46,3.797c-2.116,4.207-0.41,9.336,3.797,11.452 l1.758,0.887c11.904,5.956,25.847,6.537,38.212,1.587l10.854-4.343c7.851-3.14,16.683-2.773,24.252,1.007l18.807,9.412 c1.22,0.606,2.526,0.896,3.806,0.896c3.132,0,6.144-1.724,7.646-4.719C514.217,328.136,512.502,323.016,508.287,320.899z"/> <path d="M304.383,312.376c-8.286,4.147-18.202,4.147-26.505-0.009c-13.073-6.537-28.698-6.528-41.754,0 c-4.215,2.108-5.931,7.236-3.823,11.452c2.116,4.216,7.236,5.922,11.452,3.814c8.286-4.147,18.202-4.147,26.505,0.009 c6.528,3.268,13.696,4.898,20.872,4.898s14.353-1.638,20.898-4.907c8.286-4.156,18.193-4.147,26.496,0 c4.215,2.108,9.335,0.393,11.452-3.823c2.108-4.215,0.393-9.344-3.823-11.443C333.072,305.831,317.464,305.84,304.383,312.376z"/> <path d="M9.539,337.074c1.058,0,2.133-0.196,3.166-0.614l26.76-10.701c7.842-3.149,16.683-2.773,24.252,1.007l1.741,0.87 c13.073,6.537,28.681,6.537,41.771,0c8.286-4.156,18.193-4.147,26.496,0c13.073,6.537,28.681,6.537,41.771,0 c4.215-2.116,5.922-7.236,3.814-11.452c-2.116-4.207-7.236-5.914-11.46-3.814c-8.286,4.147-18.193,4.147-26.496,0 c-13.073-6.528-28.68-6.545-41.771,0c-8.286,4.156-18.193,4.147-26.496,0l-1.741-0.87c-11.904-5.965-25.856-6.537-38.212-1.587 l-26.76,10.701c-4.378,1.749-6.511,6.716-4.762,11.093C2.951,335.043,6.16,337.074,9.539,337.074z"/> <path d="M408.533,379.709c6.545,3.277,13.705,4.924,20.881,4.924c5.871,0,11.767-1.109,17.331-3.336l10.854-4.344 c4.369-1.749,6.502-6.716,4.753-11.093c-1.749-4.378-6.758-6.502-11.085-4.745l-10.854,4.335 c-7.876,3.149-16.708,2.773-24.235-0.998l-1.758-0.887c-13.09-6.537-28.698-6.528-41.771,0.009 c-8.286,4.156-18.193,4.147-26.496,0l-7.62,15.266c13.065,6.537,28.681,6.537,41.762-0.009 c8.294-4.147,18.202-4.147,26.479-0.008L408.533,379.709z"/> <path d="M247.576,367.382c-2.116-4.215-7.236-5.914-11.452-3.814c-8.311,4.156-18.202,4.156-26.513,0 c-13.073-6.537-28.689-6.537-41.762,0.009c-8.286,4.139-18.193,4.147-26.496-0.009c-4.215-2.099-9.327-0.401-11.452,3.814 c-2.108,4.224-0.393,9.344,3.823,11.452c13.073,6.537,28.681,6.537,41.771,0c8.286-4.156,18.185-4.156,26.505,0.009 c6.537,3.268,13.705,4.898,20.873,4.898c7.177,0,14.344-1.638,20.881-4.907C247.969,376.726,249.684,371.606,247.576,367.382z"/> <path d="M9.539,388.274c1.058,0,2.133-0.196,3.166-0.614l26.76-10.701c7.842-3.149,16.683-2.773,24.252,1.007l1.741,0.87 c4.207,2.108,9.335,0.401,11.452-3.814c2.108-4.215,0.393-9.344-3.823-11.452l-1.741-0.87 c-11.904-5.965-25.856-6.536-38.212-1.587l-26.76,10.701c-4.378,1.749-6.511,6.716-4.762,11.093 C2.951,386.243,6.16,388.274,9.539,388.274z"/> <path d="M508.287,423.299l-18.807-9.404c-11.904-5.956-25.847-6.536-38.212-1.587l-10.854,4.343 c-7.876,3.14-16.708,2.773-24.235-1.007l-1.741-0.87c-4.233-2.116-9.344-0.41-11.46,3.797c-2.116,4.207-0.41,9.335,3.797,11.452 l1.758,0.887c11.904,5.956,25.847,6.536,38.212,1.587l10.854-4.343c7.851-3.149,16.683-2.773,24.252,1.007l18.807,9.412 c1.22,0.606,2.526,0.896,3.806,0.896c3.132,0,6.144-1.724,7.646-4.719C514.217,430.536,512.502,425.416,508.287,423.299z"/> <path d="M291.13,434.941c7.177,0,14.353-1.638,20.898-4.907c4.215-2.108,5.922-7.228,3.814-11.452 c-2.108-4.215-7.245-5.922-11.46-3.806c-8.286,4.147-18.202,4.147-26.505-0.009c-13.073-6.537-28.698-6.528-41.754,0 c-4.215,2.108-5.931,7.236-3.823,11.452c2.116,4.224,7.236,5.931,11.452,3.814c8.286-4.147,18.202-4.147,26.505,0.009 C276.786,433.311,283.954,434.941,291.13,434.941z"/> <path d="M145.176,426.219c2.108-4.215,0.393-9.344-3.823-11.452c-13.073-6.528-28.68-6.537-41.771,0.009 c-8.286,4.147-18.193,4.147-26.496-0.009l-1.741-0.87c-11.904-5.965-25.856-6.536-38.212-1.587 c-4.378,1.749-6.511,6.716-4.762,11.085c1.749,4.386,6.75,6.485,11.093,4.762c7.842-3.157,16.683-2.782,24.252,1.007l1.741,0.87 c6.537,3.268,13.705,4.907,20.881,4.907c7.168,0,14.353-1.638,20.89-4.907c8.286-4.156,18.193-4.147,26.496,0 C137.94,432.15,143.051,430.443,145.176,426.219z"/> <path d="M508.287,474.499l-18.807-9.404c-11.904-5.956-25.847-6.537-38.212-1.587l-10.854,4.344 c-7.859,3.14-16.691,2.765-24.252-1.007c-4.215-2.116-9.327-0.401-11.443,3.814c-2.116,4.215-0.401,9.344,3.814,11.452 c11.904,5.956,25.847,6.536,38.212,1.587l10.854-4.343c7.851-3.149,16.683-2.782,24.252,1.007l18.807,9.412 c1.22,0.606,2.526,0.896,3.806,0.896c3.132,0,6.144-1.724,7.646-4.719C514.217,481.736,512.502,476.616,508.287,474.499z"/> <path d="M346.153,465.968c-13.082-6.537-28.689-6.528-41.771,0.009c-8.286,4.147-18.202,4.147-26.505-0.009 c-4.198-2.099-9.327-0.401-11.443,3.823c-2.108,4.216-0.393,9.344,3.823,11.452c6.528,3.268,13.696,4.898,20.872,4.898 s14.353-1.638,20.898-4.907c8.286-4.156,18.193-4.147,26.496,0c4.215,2.108,9.335,0.401,11.452-3.823 C352.084,473.195,350.369,468.067,346.153,465.968z"/> <path d="M209.611,465.963c-13.073-6.536-28.689-6.536-41.762,0.009c-8.286,4.147-18.193,4.147-26.496,0 c-4.215-2.108-9.335-0.401-11.452,3.814c-2.108,4.215-0.393,9.344,3.823,11.452c6.528,3.268,13.705,4.898,20.873,4.898 c7.177,0,14.353-1.63,20.898-4.907c8.286-4.147,18.185-4.147,26.505,0.009c4.207,2.108,9.318,0.401,11.443-3.814 C215.551,473.2,213.827,468.071,209.611,465.963z"/> <path d="M73.087,465.97l-1.741-0.87c-11.904-5.965-25.856-6.537-38.212-1.587l-26.76,10.701 c-4.378,1.749-6.511,6.716-4.762,11.093c1.34,3.337,4.548,5.367,7.927,5.367c1.058,0,2.133-0.196,3.166-0.614l26.76-10.701 c7.842-3.149,16.683-2.782,24.252,1.007l1.741,0.87c4.207,2.108,9.335,0.401,11.452-3.814 C79.017,473.207,77.302,468.078,73.087,465.97z"/> </g> </g> </g> </g>

</svg>